<svg width="48" height="48" viewBox="0 0 48 48" fill="none" xmlns="http://www.w3.org/2000/svg">
<path d="M47.2725 20.115H37.0725V3.23253C37.0725 1.50753 35.6625 0.0975342 33.9375 0.0975342H14.5425C12.8175 0.0975342 11.4225 1.50003 11.4225 3.23253V16.71H1.08753C0.806094 16.7205 0.539672 16.8396 0.344262 17.0424C0.148852 17.2452 0.0396729 17.5159 0.0396729 17.7975C0.0396729 18.0792 0.148852 18.3498 0.344262 18.5526C0.539672 18.7554 0.806094 18.8746 1.08753 18.885H11.4225V44.775C11.4225 46.5 12.825 47.9025 14.5425 47.9025H33.93C35.6625 47.9025 37.065 46.5 37.065 44.775V27.885H47.2725C47.67 27.885 48 27.5625 48 27.1575V20.8275C47.999 20.733 47.9795 20.6395 47.9424 20.5526C47.9053 20.4656 47.8514 20.3868 47.7839 20.3206C47.7163 20.2544 47.6364 20.2022 47.5486 20.167C47.4609 20.1317 47.3671 20.114 47.2725 20.115ZM22.605 2.86503H25.875C26.28 2.86503 26.6025 3.18753 26.6025 3.59253C26.6025 3.99753 26.28 4.32003 25.875 4.32003H22.605C22.4121 4.32003 22.227 4.24339 22.0906 4.10695C21.9542 3.97052 21.8775 3.78548 21.8775 3.59253C21.8775 3.19503 22.2075 2.86503 22.605 2.86503ZM25.0125 45.135H23.475C23.07 45.135 22.7475 44.8125 22.7475 44.4075C22.7475 44.0025 23.07 43.68 23.475 43.68H25.0125C25.2055 43.68 25.3905 43.7567 25.5269 43.8931C25.6634 44.0295 25.74 44.2146 25.74 44.4075C25.74 44.6005 25.6634 44.7855 25.5269 44.922C25.3905 45.0584 25.2055 45.135 25.0125 45.135ZM34.8975 40.9425H13.5975V18.885H30.585C30.8665 18.8746 31.1329 18.7554 31.3283 18.5526C31.5237 18.3498 31.6329 18.0792 31.6329 17.7975C31.6329 17.5159 31.5237 17.2452 31.3283 17.0424C31.1329 16.8396 30.8665 16.7205 30.585 16.71H13.59V7.11003H34.89V20.115H19.74C19.5471 20.115 19.362 20.1917 19.2256 20.3281C19.0892 20.4646 19.0125 20.6496 19.0125 20.8425V27.1725C19.0125 27.57 19.335 27.9 19.74 27.9H34.8975V40.9425ZM34.62 24.7275H22.3275C22.1346 24.7275 21.9495 24.6509 21.8131 24.5145C21.6767 24.378 21.6 24.193 21.6 24C21.6 23.8071 21.6767 23.622 21.8131 23.4856C21.9495 23.3492 22.1346 23.2725 22.3275 23.2725H34.62C34.813 23.2725 34.998 23.3492 35.1344 23.4856C35.2709 23.622 35.3475 23.8071 35.3475 24C35.3475 24.193 35.2709 24.378 35.1344 24.5145C34.998 24.6509 34.813 24.7275 34.62 24.7275ZM44.16 24.7275H37.2975C37.1046 24.7275 36.9195 24.6509 36.7831 24.5145C36.6467 24.378 36.57 24.193 36.57 24C36.57 23.8071 36.6467 23.622 36.7831 23.4856C36.9195 23.3492 37.1046 23.2725 37.2975 23.2725H44.16C44.5575 23.2725 44.8875 23.595 44.8875 24C44.88 24.405 44.5575 24.7275 44.16 24.7275Z" fill="#9DC5FA"/>
</svg>
