<svg width="48" height="48" viewBox="0 0 48 48" fill="none" xmlns="http://www.w3.org/2000/svg">
<g clip-path="url(#clip0_297_51)">
<path d="M39.7426 8.24995H45.5776C45.859 8.2395 46.1254 8.12035 46.3208 7.91754C46.5162 7.71474 46.6254 7.44408 46.6254 7.16245C46.6254 6.88082 46.5162 6.61016 46.3208 6.40736C46.1254 6.20456 45.859 6.08541 45.5776 6.07495H39.7426C39.4611 6.08541 39.1947 6.20456 38.9993 6.40736C38.8039 6.61016 38.6947 6.88082 38.6947 7.16245C38.6947 7.44408 38.8039 7.71474 38.9993 7.91754C39.1947 8.12035 39.4611 8.2395 39.7426 8.24995ZM39.7426 11.385H45.5776C45.859 11.3745 46.1254 11.2553 46.3208 11.0525C46.5162 10.8497 46.6254 10.5791 46.6254 10.2975C46.6254 10.0158 46.5162 9.74516 46.3208 9.54236C46.1254 9.33956 45.859 9.2204 45.5776 9.20995H39.7426C39.4611 9.2204 39.1947 9.33956 38.9993 9.54236C38.8039 9.74516 38.6947 10.0158 38.6947 10.2975C38.6947 10.5791 38.8039 10.8497 38.9993 11.0525C39.1947 11.2553 39.4611 11.3745 39.7426 11.385ZM39.7426 14.5275H45.5776C45.859 14.517 46.1254 14.3978 46.3208 14.195C46.5162 13.9922 46.6254 13.7216 46.6254 13.44C46.6254 13.1583 46.5162 12.8877 46.3208 12.6849C46.1254 12.4821 45.859 12.3629 45.5776 12.3525H39.7426C39.4611 12.3629 39.1947 12.4821 38.9993 12.6849C38.8039 12.8877 38.6947 13.1583 38.6947 13.44C38.6947 13.7216 38.8039 13.9922 38.9993 14.195C39.1947 14.3978 39.4611 14.517 39.7426 14.5275ZM39.7426 17.67H45.5776C45.859 17.6595 46.1254 17.5403 46.3208 17.3375C46.5162 17.1347 46.6254 16.8641 46.6254 16.5825C46.6254 16.3008 46.5162 16.0302 46.3208 15.8274C46.1254 15.6246 45.859 15.5054 45.5776 15.495H39.7426C39.4611 15.5054 39.1947 15.6246 38.9993 15.8274C38.8039 16.0302 38.6947 16.3008 38.6947 16.5825C38.6947 16.8641 38.8039 17.1347 38.9993 17.3375C39.1947 17.5403 39.4611 17.6595 39.7426 17.67Z" fill="#9DC5FA"/>
<path d="M47.2725 20.115H37.0725V3.23253C37.0725 1.50753 35.6625 0.0975342 33.9375 0.0975342H14.5425C12.8175 0.0975342 11.4225 1.50003 11.4225 3.23253V16.71H1.08753C0.806094 16.7205 0.539672 16.8396 0.344262 17.0424C0.148852 17.2452 0.0396729 17.5159 0.0396729 17.7975C0.0396729 18.0792 0.148852 18.3498 0.344262 18.5526C0.539672 18.7554 0.806094 18.8746 1.08753 18.885H11.4225V44.775C11.4225 46.5 12.825 47.9025 14.5425 47.9025H33.93C35.6625 47.9025 37.065 46.5 37.065 44.775V27.885H47.2725C47.67 27.885 48 27.5625 48 27.1575V20.8275C47.999 20.733 47.9795 20.6395 47.9424 20.5526C47.9053 20.4656 47.8514 20.3868 47.7839 20.3206C47.7163 20.2544 47.6364 20.2022 47.5486 20.167C47.4609 20.1317 47.3671 20.114 47.2725 20.115ZM22.605 2.86503H25.875C26.28 2.86503 26.6025 3.18753 26.6025 3.59253C26.6025 3.99753 26.28 4.32003 25.875 4.32003H22.605C22.4121 4.32003 22.227 4.24339 22.0906 4.10695C21.9542 3.97052 21.8775 3.78548 21.8775 3.59253C21.8775 3.19503 22.2075 2.86503 22.605 2.86503ZM25.0125 45.135H23.475C23.07 45.135 22.7475 44.8125 22.7475 44.4075C22.7475 44.0025 23.07 43.68 23.475 43.68H25.0125C25.2055 43.68 25.3905 43.7567 25.5269 43.8931C25.6634 44.0295 25.74 44.2146 25.74 44.4075C25.74 44.6005 25.6634 44.7855 25.5269 44.922C25.3905 45.0584 25.2055 45.135 25.0125 45.135ZM34.8975 40.9425H13.5975V18.885H30.585C30.8665 18.8746 31.1329 18.7554 31.3283 18.5526C31.5237 18.3498 31.6329 18.0792 31.6329 17.7975C31.6329 17.5159 31.5237 17.2452 31.3283 17.0424C31.1329 16.8396 30.8665 16.7205 30.585 16.71H13.59V7.11003H34.89V20.115H19.74C19.5471 20.115 19.362 20.1917 19.2256 20.3281C19.0892 20.4646 19.0125 20.6496 19.0125 20.8425V27.1725C19.0125 27.57 19.335 27.9 19.74 27.9H34.8975V40.9425ZM34.62 24.7275H22.3275C22.1346 24.7275 21.9495 24.6509 21.8131 24.5145C21.6767 24.378 21.6 24.193 21.6 24C21.6 23.8071 21.6767 23.622 21.8131 23.4856C21.9495 23.3492 22.1346 23.2725 22.3275 23.2725H34.62C34.813 23.2725 34.998 23.3492 35.1344 23.4856C35.2709 23.622 35.3475 23.8071 35.3475 24C35.3475 24.193 35.2709 24.378 35.1344 24.5145C34.998 24.6509 34.813 24.7275 34.62 24.7275ZM44.16 24.7275H37.2975C37.1046 24.7275 36.9195 24.6509 36.7831 24.5145C36.6467 24.378 36.57 24.193 36.57 24C36.57 23.8071 36.6467 23.622 36.7831 23.4856C36.9195 23.3492 37.1046 23.2725 37.2975 23.2725H44.16C44.5575 23.2725 44.8875 23.595 44.8875 24C44.88 24.405 44.5575 24.7275 44.16 24.7275Z" fill="#9DC5FA"/>
<path d="M1.08747 15.27H8.70747C9.10497 15.27 9.43497 14.9475 9.43497 14.5425V6.93001C9.43497 6.73707 9.35832 6.55203 9.22189 6.41559C9.08546 6.27916 8.90042 6.20251 8.70747 6.20251H1.08747C0.682471 6.20251 0.359971 6.52501 0.359971 6.93001V14.55C0.367471 14.94 0.682471 15.27 1.08747 15.27ZM3.41247 10.005H4.16997V9.24751C4.16997 9.05457 4.24662 8.86953 4.38305 8.73309C4.51948 8.59666 4.70453 8.52001 4.89747 8.52001C5.09042 8.52001 5.27546 8.59666 5.41189 8.73309C5.54832 8.86953 5.62497 9.05457 5.62497 9.24751V10.005H6.38247C6.78747 10.005 7.10997 10.3275 7.10997 10.7325C7.10997 11.1375 6.78747 11.46 6.38247 11.46H5.61747V12.225C5.61747 12.418 5.54082 12.603 5.40439 12.7394C5.26796 12.8759 5.08292 12.9525 4.88997 12.9525C4.69703 12.9525 4.51198 12.8759 4.37555 12.7394C4.23912 12.603 4.16247 12.418 4.16247 12.225V11.46H3.41247C3.21953 11.46 3.03448 11.3834 2.89805 11.2469C2.76162 11.1105 2.68497 10.9255 2.68497 10.7325C2.68497 10.5396 2.76162 10.3545 2.89805 10.2181C3.03448 10.0817 3.21953 10.005 3.41247 10.005ZM8.90997 28.185H0.884971C0.789434 28.185 0.694833 28.2038 0.606569 28.2404C0.518304 28.277 0.438105 28.3305 0.370551 28.3981C0.234118 28.5345 0.157471 28.7196 0.157471 28.9125V43.8525C0.157471 44.25 0.479971 44.58 0.884971 44.58H8.90997C9.30747 44.58 9.63747 44.2575 9.63747 43.8525V28.9125C9.63747 28.7196 9.56082 28.5345 9.42439 28.3981C9.28796 28.2617 9.10292 28.185 8.90997 28.185ZM5.97747 40.44H3.81747C3.62453 40.44 3.43948 40.3634 3.30305 40.2269C3.16662 40.0905 3.08997 39.9055 3.08997 39.7125C3.08997 39.5196 3.16662 39.3345 3.30305 39.1981C3.43948 39.0617 3.62453 38.985 3.81747 38.985H5.97747C6.17042 38.985 6.35546 39.0617 6.49189 39.1981C6.62832 39.3345 6.70497 39.5196 6.70497 39.7125C6.70497 39.9055 6.62832 40.0905 6.49189 40.2269C6.35546 40.3634 6.17042 40.44 5.97747 40.44ZM5.97747 37.1025H3.81747C3.62453 37.1025 3.43948 37.0259 3.30305 36.8894C3.16662 36.753 3.08997 36.568 3.08997 36.375C3.08997 36.1821 3.16662 35.997 3.30305 35.8606C3.43948 35.7242 3.62453 35.6475 3.81747 35.6475H5.97747C6.38247 35.6475 6.70497 35.97 6.70497 36.375C6.69747 36.7725 6.38247 37.1025 5.97747 37.1025ZM5.97747 33.7575H3.81747C3.62453 33.7575 3.43948 33.6809 3.30305 33.5444C3.16662 33.408 3.08997 33.223 3.08997 33.03C3.08997 32.8371 3.16662 32.652 3.30305 32.5156C3.43948 32.3792 3.62453 32.3025 3.81747 32.3025H5.97747C6.38247 32.3025 6.70497 32.625 6.70497 33.03C6.69747 33.4425 6.38247 33.7575 5.97747 33.7575Z" fill="#9DC5FA"/>
<path d="M4.89756 26.175C6.5337 26.175 7.86006 24.8486 7.86006 23.2125C7.86006 21.5764 6.5337 20.25 4.89756 20.25C3.26142 20.25 1.93506 21.5764 1.93506 23.2125C1.93506 24.8486 3.26142 26.175 4.89756 26.175Z" fill="#9DC5FA"/>
</g>
<defs>
<clipPath id="clip0_297_51">
<rect width="48" height="48" fill="white"/>
</clipPath>
</defs>
</svg>
