<svg width="48" height="48" viewBox="0 0 48 48" fill="none" xmlns="http://www.w3.org/2000/svg">
<path d="M14.4 0H7.2C3.216 0 0 3.216 0 7.2V14.4C0 18.384 3.216 21.6 7.2 21.6H14.4C18.384 21.6 21.6 18.384 21.6 14.4V7.2C21.6 3.216 18.384 0 14.4 0ZM18 14.4C18 16.392 16.392 18 14.4 18H7.2C5.208 18 3.6 16.392 3.6 14.4V7.2C3.6 5.208 5.208 3.6 7.2 3.6H14.4C16.392 3.6 18 5.208 18 7.2V14.4ZM40.8 0H33.6C29.616 0 26.4 3.216 26.4 7.2V14.4C26.4 18.384 29.616 21.6 33.6 21.6H40.8C44.784 21.6 48 18.384 48 14.4V7.2C48 3.216 44.784 0 40.8 0ZM44.4 14.4C44.4 16.392 42.792 18 40.8 18H33.6C31.608 18 30 16.392 30 14.4V7.2C30 5.208 31.608 3.6 33.6 3.6H40.8C42.792 3.6 44.4 5.208 44.4 7.2V14.4ZM14.4 26.4H7.2C3.216 26.4 0 29.616 0 33.6V40.8C0 44.784 3.216 48 7.2 48H14.4C18.384 48 21.6 44.784 21.6 40.8V33.6C21.6 29.616 18.384 26.4 14.4 26.4ZM18 40.8C18 42.792 16.392 44.4 14.4 44.4H7.2C5.208 44.4 3.6 42.792 3.6 40.8V33.6C3.6 31.608 5.208 30 7.2 30H14.4C16.392 30 18 31.608 18 33.6V40.8ZM44.4 35.4H39V30C39 29.016 38.184 28.2 37.2 28.2C36.216 28.2 35.4 29.016 35.4 30V35.4H30C29.016 35.4 28.2 36.216 28.2 37.2C28.2 38.184 29.016 39 30 39H35.4V44.4C35.4 45.384 36.216 46.2 37.2 46.2C38.184 46.2 39 45.384 39 44.4V39H44.4C45.384 39 46.2 38.184 46.2 37.2C46.2 36.216 45.384 35.4 44.4 35.4Z" fill="#9DC5FA"/>
</svg>
