<svg width="48" height="48" viewBox="0 0 48 48" fill="none" xmlns="http://www.w3.org/2000/svg">
<path d="M47.4665 26.7902C46.8999 24.5075 45.8971 22.3796 44.5233 20.5445C43.1494 18.7095 41.4352 17.2084 39.4918 16.1387C39.5059 15.8415 39.5299 15.5453 39.5307 15.241C39.5339 11.9632 38.6516 8.75632 36.9927 6.01671C36.872 5.81768 36.6834 5.67882 36.4683 5.63067C36.2532 5.58253 36.0293 5.62904 35.8458 5.75998C35.6623 5.89092 35.5343 6.09556 35.4899 6.32888C35.4456 6.56221 35.4884 6.8051 35.6091 7.00413C37.0901 9.45278 37.877 12.3187 37.8724 15.2473C37.8724 15.2877 37.8674 15.3272 37.8666 15.3685C36.1416 14.6662 34.3145 14.305 32.4721 14.3021C29.4648 14.3035 26.5224 15.2504 24.0009 17.0282C23.5306 16.6945 23.0438 16.3889 22.5428 16.1126C22.3467 16.0055 22.1194 15.9872 21.9109 16.0619C21.7024 16.1366 21.5298 16.298 21.4311 16.5107C21.3323 16.7234 21.3155 16.97 21.3843 17.1962C21.4531 17.4223 21.602 17.6096 21.7981 17.7167C22.0596 17.8592 22.3158 18.0112 22.5668 18.1727C19.7101 20.7556 17.7921 24.3553 17.1549 28.3297C16.0706 27.6648 15.0734 26.8451 14.19 25.8926C12.0355 23.5615 10.6541 20.5215 10.2618 17.2482C13.0751 15.9979 16.1875 15.7773 19.1269 16.6198C19.3389 16.6815 19.5648 16.6492 19.7549 16.5302C19.945 16.4112 20.0837 16.2151 20.1406 15.9852C20.1974 15.7552 20.1677 15.5101 20.058 15.3039C19.9483 15.0977 19.7675 14.9472 19.5555 14.8855C16.442 13.9952 13.151 14.1702 10.1327 15.3864C10.1327 15.3415 10.1261 15.2967 10.1261 15.2536C10.1262 12.4289 10.8581 9.66103 12.2383 7.26571C13.6184 4.8704 15.5913 2.94399 17.932 1.70617C18.1295 1.60202 18.2808 1.41701 18.3525 1.19185C18.4243 0.966693 18.4107 0.719827 18.3147 0.505562C18.2671 0.399468 18.2008 0.304572 18.1194 0.226291C18.0381 0.148009 17.9433 0.0878761 17.8405 0.0493244C17.633 -0.0285341 17.4054 -0.0137598 17.2079 0.0903969C14.5889 1.4751 12.3813 3.63009 10.8366 6.30975C9.29187 8.98941 8.47222 12.0859 8.47108 15.2464C8.47108 15.5471 8.49756 15.8433 8.51162 16.144C7.46974 16.71 6.49057 17.4026 5.59301 18.2086C5.42424 18.3609 5.31813 18.5796 5.29804 18.8167C5.27794 19.0539 5.3455 19.2899 5.48585 19.473C5.6262 19.6561 5.82784 19.7712 6.04642 19.793C6.26501 19.8148 6.48262 19.7415 6.65139 19.5892C7.29053 19.0137 7.97692 18.5029 8.70195 18.0632C9.22939 21.5098 10.7392 24.6905 13.019 27.1583C14.1739 28.4078 15.5025 29.4528 16.9563 30.2552C16.9245 30.8639 16.9245 31.4741 16.9563 32.0828C16.9714 32.3192 17.0711 32.5399 17.234 32.6979C17.3969 32.8558 17.6102 32.9385 17.8285 32.9284C18.0475 32.9149 18.2526 32.8077 18.3988 32.6303C18.545 32.4529 18.6202 32.2198 18.608 31.9822C18.5942 31.701 18.5873 31.4206 18.5873 31.1411C18.5873 31.1034 18.5931 31.0657 18.5931 31.028C22.0799 32.4487 25.9235 32.4487 29.4103 31.028C29.4103 31.0666 29.4144 31.1052 29.4144 31.1438C29.4132 33.4488 28.9245 35.7227 27.986 37.7906C27.0475 39.8585 25.6841 41.6652 24.0009 43.0719C21.5895 41.056 19.8548 38.2374 19.0632 35.0486C19.0374 34.932 18.9904 34.8222 18.9248 34.7256C18.8593 34.629 18.7766 34.5476 18.6816 34.4863C18.5866 34.425 18.4812 34.3849 18.3717 34.3685C18.2622 34.3521 18.1508 34.3596 18.044 34.3907C17.9372 34.4218 17.8373 34.4757 17.75 34.5494C17.6628 34.6231 17.5901 34.715 17.5361 34.8196C17.4822 34.9243 17.4481 35.0397 17.4359 35.1588C17.4238 35.278 17.4337 35.3987 17.4652 35.5136C18.3025 38.8838 20.0833 41.8891 22.5618 44.1149C19.8486 45.8435 16.6743 46.5202 13.5599 46.034C10.4454 45.5477 7.57589 43.9275 5.42216 41.4391C3.26842 38.9507 1.95847 35.742 1.70728 32.3397C1.45609 28.9373 2.27858 25.5434 4.03978 22.7149C4.10277 22.6173 4.14723 22.5072 4.17059 22.3908C4.19394 22.2744 4.19572 22.1542 4.17581 22.0371C4.15591 21.92 4.11472 21.8083 4.05464 21.7086C3.99457 21.609 3.91681 21.5232 3.8259 21.4565C3.73499 21.3897 3.63274 21.3433 3.52511 21.3198C3.41748 21.2963 3.30662 21.2963 3.19899 21.3198C3.09136 21.3432 2.9891 21.3897 2.89819 21.4565C2.80727 21.5232 2.72951 21.6089 2.66943 21.7086C0.659865 24.9287 -0.260754 28.8039 0.0637944 32.6765C0.388343 36.5491 1.93807 40.1807 4.44999 42.9549C6.96192 45.7291 10.2813 47.4752 13.8449 47.8967C17.4085 48.3182 20.9968 47.3893 24.0009 45.2675C24.9722 45.9563 26.0117 46.5248 27.0999 46.9623C27.2031 47.0112 27.3144 47.0367 27.4269 47.0373C27.5395 47.0379 27.651 47.0135 27.7546 46.9658C27.8582 46.918 27.9518 46.8478 28.0295 46.7595C28.1073 46.6711 28.1676 46.5665 28.2067 46.452C28.2459 46.3376 28.2632 46.2156 28.2574 46.0936C28.2516 45.9717 28.223 45.8523 28.1732 45.7427C28.1234 45.6332 28.0536 45.5358 27.9679 45.4566C27.8822 45.3773 27.7826 45.3179 27.675 45.2819C26.8943 44.9669 26.1412 44.5764 25.425 44.1149C27.1897 42.5373 28.6109 40.5558 29.5868 38.3123C30.5626 36.0689 31.0689 33.6191 31.0694 31.1384C31.0694 30.8449 31.0537 30.5496 31.0396 30.2543C32.4956 29.4516 33.8262 28.4056 34.9827 27.1547C36.4862 25.5308 37.6641 23.5874 38.4425 21.4465C38.8369 20.3544 39.1245 19.2204 39.3006 18.0632C42.0383 19.7475 44.1667 22.3914 45.3365 25.5609C46.5062 28.7304 46.6477 32.2372 45.7378 35.5055C44.8279 38.7738 42.9207 41.6094 40.3292 43.5467C37.7377 45.4841 34.616 46.4081 31.4766 46.167C31.2577 46.1501 31.0415 46.2282 30.8757 46.3842C30.7099 46.5401 30.608 46.7612 30.5924 46.9986C30.5768 47.2361 30.6488 47.4706 30.7926 47.6505C30.9364 47.8303 31.1401 47.9409 31.3591 47.9578C31.7226 47.9859 32.0881 48 32.4555 48C34.8396 48.0044 37.1925 47.4128 39.3317 46.2712C41.471 45.1297 43.339 43.4688 44.7908 41.4174C46.2426 39.3661 47.2392 36.9795 47.7032 34.4427C48.1672 31.906 48.0862 29.2875 47.4665 26.7902ZM24.0009 30.2973C22.1908 30.3001 20.3977 29.918 18.723 29.1726C19.2056 25.3036 21.0429 21.7846 23.8536 19.346C23.9032 19.3038 23.9562 19.2697 24.0058 19.2284C26.8538 21.6112 28.7397 25.0986 29.2671 28.958C29.2771 29.0272 29.2804 29.0981 29.2886 29.1681C27.6112 29.9162 25.8146 30.2999 24.0009 30.2973ZM36.9042 20.7894C36.2087 22.7035 35.1559 24.4409 33.8118 25.8926C32.9277 26.847 31.9293 27.6683 30.8435 28.3342C30.2193 24.3624 28.3051 20.7642 25.4474 18.1907C27.2865 17.006 29.355 16.303 31.4885 16.1375C33.622 15.972 35.7617 16.3486 37.7375 17.2374C37.5949 18.4539 37.315 19.6469 36.9042 20.7894Z" fill="#9DC5FA"/>
</svg>
