<svg width="48" height="48" viewBox="0 0 48 48" fill="none" xmlns="http://www.w3.org/2000/svg">
<path d="M47.4541 0.5L47.4639 0.508789C47.4805 0.528124 47.4999 0.568273 47.5 0.623047V47.377C47.4999 47.4317 47.4805 47.4719 47.4639 47.4912C47.4598 47.496 47.4562 47.4985 47.4541 47.5H0.545898L0.536133 47.4912C0.519527 47.4719 0.500078 47.4317 0.5 47.377V0.623047C0.500039 0.595735 0.504818 0.572022 0.511719 0.552734L0.536133 0.508789C0.540225 0.504033 0.543825 0.501547 0.545898 0.5H47.4541ZM0.572266 47.2529H47.4277V10.0977H0.572266V47.2529ZM0.572266 9.85059H8.31934V0.74707H0.572266V9.85059ZM8.3916 9.85059H47.4277V0.74707H8.3916V9.85059Z" fill="black" stroke="#9DC5FA"/>
<mask id="path-2-inside-1_297_60" fill="white">
<path d="M28.9072 30.0342C29.2894 30.038 29.6696 29.9706 30.0335 29.8348C30.4219 29.6945 30.7826 29.4659 31.0944 29.1624C31.4063 28.8588 31.6632 28.4864 31.8503 28.0665C32.0374 27.6467 32.1509 27.1879 32.1843 26.7167C32.2176 26.2455 32.1702 25.7712 32.0447 25.3215L34.7906 13.4025C34.8254 13.2456 34.8062 13.079 34.7371 12.9382C34.668 12.7974 34.5545 12.6934 34.4205 12.6483L32.8545 12.1558C32.7201 12.1109 32.5759 12.1287 32.4527 12.2056C32.3295 12.2824 32.2369 12.4122 32.1948 12.5672L29.0681 24C28.4801 24.2115 27.9726 24.6517 27.6308 25.2467C27.0301 26.0633 26.6118 26.5433 25.979 26.3314C25.8862 26.3018 25.7884 26.3017 25.6956 26.3312C25.6028 26.3607 25.5186 26.4186 25.4517 26.4989C25.3848 26.5792 25.3377 26.6789 25.3154 26.7876C25.293 26.8964 25.2962 27.0101 25.3247 27.1168C25.5847 27.9773 26.07 28.7214 26.7126 29.2447C27.3552 29.768 28.1227 30.0441 28.9072 30.0342ZM33.0583 13.5085L33.5946 13.6955L31.1329 24.5298L30.13 24.1932L33.0583 13.5085ZM28.446 26.0135C28.8268 25.5023 29.1164 25.147 29.3041 25.2093L31.0525 25.8327C31.1956 26.4179 31.1345 27.0451 30.8826 27.5783C30.6306 28.1115 30.208 28.5079 29.7063 28.6815C29.1701 28.8831 28.5929 28.8831 28.0567 28.6817C27.5204 28.4803 27.0524 28.0876 26.7191 27.5594C27.4217 27.2711 28.0268 26.7295 28.446 26.0135ZM37.8422 27.7402L42.1327 20.7958C42.1986 20.6896 42.2341 20.562 42.2341 20.4311C42.2341 20.3002 42.1986 20.1726 42.1327 20.0664L37.8422 13.1158L36.9734 13.8451L41.044 20.428L36.9734 27.0233L37.8422 27.7402ZM23.5656 28.2701L24.4344 27.5407L20.042 20.4342L24.4344 13.334L23.5656 12.6046L18.9479 20.0851C18.882 20.1913 18.8466 20.3189 18.8466 20.4498C18.8466 20.5807 18.882 20.7083 18.9479 20.8145L23.5656 28.2701ZM18.9747 35.3392H44.3155C44.4577 35.3392 44.5942 35.2735 44.6947 35.1566C44.7953 35.0397 44.8518 34.8811 44.8518 34.7158V31.7922C44.8518 31.6268 44.7953 31.4683 44.6947 31.3514C44.5942 31.2345 44.4577 31.1688 44.3155 31.1688H18.9747C18.8325 31.1688 18.6961 31.2345 18.5955 31.3514C18.4949 31.4683 18.4384 31.6268 18.4384 31.7922V34.7158C18.4384 34.8811 18.4949 35.0397 18.5955 35.1566C18.6961 35.2735 18.8325 35.3392 18.9747 35.3392ZM19.511 32.4155H43.7792V34.0924H19.511V32.4155ZM18.9747 42.1589H39.4833C39.6256 42.1589 39.762 42.0932 39.8626 41.9763C39.9631 41.8594 40.0196 41.7009 40.0196 41.5355V38.6119C40.0196 38.4466 39.9631 38.288 39.8626 38.1711C39.762 38.0542 39.6256 37.9885 39.4833 37.9885H18.9747C18.8325 37.9885 18.6961 38.0542 18.5955 38.1711C18.4949 38.288 18.4384 38.4466 18.4384 38.6119V41.5355C18.4384 41.7009 18.4949 41.8594 18.5955 41.9763C18.6961 42.0932 18.8325 42.1589 18.9747 42.1589ZM19.511 39.2353H38.947V40.9122H19.511V39.2353ZM3.35193 14.2628V27.8961C3.35193 28.0614 3.40843 28.2199 3.50901 28.3368C3.60959 28.4538 3.746 28.5194 3.88824 28.5194H15.6228C15.765 28.5194 15.9014 28.4538 16.002 28.3368C16.1026 28.2199 16.1591 28.0614 16.1591 27.8961V14.2628C16.1591 14.0975 16.1026 13.9389 16.002 13.822C15.9014 13.7051 15.765 13.6394 15.6228 13.6394H3.88824C3.746 13.6394 3.60959 13.7051 3.50901 13.822C3.40843 13.9389 3.35193 14.0975 3.35193 14.2628ZM4.42455 14.8862H15.0865V27.2727H4.42455V14.8862ZM15.6228 31.1688H3.88824C3.746 31.1688 3.60959 31.2345 3.50901 31.3514C3.40843 31.4683 3.35193 31.6268 3.35193 31.7922V43.4805C3.35193 43.6458 3.40843 43.8044 3.50901 43.9213C3.60959 44.0382 3.746 44.1038 3.88824 44.1038H15.6228C15.765 44.1038 15.9014 44.0382 16.002 43.9213C16.1026 43.8044 16.1591 43.6458 16.1591 43.4805V31.7922C16.1591 31.6268 16.1026 31.4683 16.002 31.3514C15.9014 31.2345 15.765 31.1688 15.6228 31.1688ZM14.1694 32.4155L9.7555 36.8166L5.33629 32.4155H14.1694ZM4.42455 33.1449L8.92958 37.6394L4.42455 42.1277V33.1449ZM5.33629 42.8571L9.7555 38.4561L14.1694 42.8571H5.33629ZM15.0865 42.1277L10.5922 37.6394L15.1025 33.1449L15.0865 42.1277ZM17.591 7.24359C17.5995 7.29348 17.6139 7.34174 17.6339 7.38696C17.6568 7.42382 17.6885 7.45202 17.7251 7.468C17.7806 7.48932 17.8383 7.5019 17.8967 7.5054H18.4652C18.5237 7.50254 18.5815 7.48995 18.6368 7.468C18.6722 7.44929 18.702 7.41895 18.7227 7.38073C18.7451 7.33904 18.7597 7.2923 18.7656 7.24359L19.3823 4.25138L20.0366 7.24359C20.0426 7.2942 20.0572 7.34294 20.0795 7.38696C20.0999 7.4265 20.1325 7.45549 20.1707 7.468C20.2261 7.48995 20.2839 7.50254 20.3423 7.5054H20.8786C20.9353 7.50204 20.9913 7.48945 21.0449 7.468C21.0859 7.45558 21.122 7.42693 21.1468 7.38696C21.1711 7.3435 21.1875 7.2947 21.1951 7.24359L22.1282 3.13553C22.1455 3.06401 22.158 2.99108 22.1658 2.91735C22.1674 2.87469 22.156 2.83273 22.1336 2.79891C22.102 2.76793 22.0623 2.75034 22.021 2.74904H21.5758C21.5329 2.75148 21.4909 2.76421 21.4525 2.78644C21.4394 2.79135 21.4274 2.79945 21.4172 2.8102C21.407 2.82095 21.3989 2.8341 21.3935 2.84878C21.3904 2.88193 21.3904 2.91537 21.3935 2.94852L20.6748 6.5454L19.9079 2.95475C19.9005 2.91334 19.8878 2.87343 19.8704 2.83631C19.8551 2.80432 19.8303 2.77992 19.8006 2.76774C19.7572 2.75129 19.7122 2.74083 19.6666 2.73657H19.1732C19.1269 2.73931 19.0814 2.75199 19.0391 2.77397C19.01 2.78409 18.9852 2.80628 18.9694 2.83631C18.9515 2.87267 18.9405 2.91305 18.9372 2.95475L18.2132 6.5454L17.4999 2.92982C17.4964 2.89094 17.4873 2.853 17.473 2.81761C17.46 2.79115 17.439 2.77118 17.4141 2.76151C17.3714 2.75348 17.328 2.75348 17.2853 2.76151H16.7973C16.7512 2.76348 16.7065 2.78079 16.6686 2.81138C16.6552 2.82648 16.6453 2.84521 16.6396 2.86588C16.634 2.88655 16.6329 2.90852 16.6364 2.92982C16.6309 2.99824 16.6309 3.06711 16.6364 3.13553L17.591 7.24359ZM25.5177 7.24359C25.5301 7.29296 25.5463 7.34094 25.566 7.38696C25.5878 7.425 25.6199 7.45351 25.6572 7.468C25.7127 7.48932 25.7704 7.5019 25.8288 7.5054H26.3973C26.454 7.50265 26.51 7.49005 26.5635 7.468C26.6012 7.45107 26.6332 7.42046 26.6547 7.38073C26.6772 7.33904 26.6918 7.2923 26.6976 7.24359L27.3144 4.25138L27.9687 7.24359C27.9722 7.29487 27.9869 7.34425 28.0116 7.38696C28.032 7.4265 28.0646 7.45549 28.1028 7.468C28.1581 7.48995 28.2159 7.50254 28.2744 7.5054H28.8107C28.8691 7.5019 28.9268 7.48932 28.9823 7.468C29.022 7.45225 29.0572 7.42424 29.0842 7.38696C29.1086 7.3435 29.125 7.2947 29.1325 7.24359L30.0657 3.13553C30.0843 3.06467 30.0951 2.99136 30.0979 2.91735C30.1048 2.89865 30.1084 2.8785 30.1084 2.85813C30.1084 2.83776 30.1048 2.81761 30.0979 2.79891C30.0663 2.76793 30.0265 2.75034 29.9852 2.74904H29.5401C29.4972 2.75148 29.4552 2.76421 29.4167 2.78644C29.4036 2.79135 29.3916 2.79945 29.3814 2.8102C29.3713 2.82095 29.3632 2.8341 29.3577 2.84878C29.3547 2.88193 29.3547 2.91537 29.3577 2.94852L28.6069 6.5454L27.84 2.95475C27.8325 2.91334 27.8199 2.87343 27.8024 2.83631C27.7885 2.82199 27.772 2.81135 27.7542 2.80514C27.7088 2.78881 27.6621 2.77835 27.6147 2.77397H27.1481C27.1019 2.7775 27.0566 2.79015 27.0141 2.81138C27.0003 2.81622 26.9875 2.82423 26.9764 2.83494C26.9654 2.84565 26.9563 2.85884 26.9497 2.87372C26.9322 2.91084 26.9196 2.95074 26.9122 2.99216L26.1452 6.5454L25.4319 2.92982C25.4258 2.89157 25.4169 2.85402 25.4051 2.81761C25.392 2.79115 25.371 2.77118 25.3461 2.76151C25.3017 2.7529 25.2564 2.7529 25.212 2.76151H24.7294C24.6832 2.76348 24.6386 2.78079 24.6006 2.81138C24.5876 2.82698 24.5776 2.84558 24.5711 2.86598C24.5646 2.88638 24.5619 2.90813 24.5631 2.92982C24.5631 2.97969 24.5738 3.04826 24.5953 3.13553L25.5177 7.24359ZM33.4498 7.24359C33.4622 7.29296 33.4783 7.34094 33.4981 7.38696C33.5199 7.425 33.552 7.45351 33.5892 7.468C33.6446 7.48995 33.7024 7.50254 33.7609 7.5054H34.3294C34.386 7.50204 34.442 7.48945 34.4956 7.468C34.5324 7.4494 34.564 7.41916 34.5868 7.38073C34.6069 7.33774 34.6213 7.29152 34.6297 7.24359L35.2625 4.25138L35.9115 7.24359C35.9199 7.29348 35.9344 7.34174 35.9544 7.38696C35.9772 7.42382 36.009 7.45202 36.0456 7.468C36.1011 7.48932 36.1588 7.5019 36.2172 7.5054H36.7535C36.8119 7.5019 36.8696 7.48932 36.9251 7.468C36.964 7.45388 36.9979 7.42544 37.0217 7.38696C37.0479 7.344 37.0661 7.29518 37.0753 7.24359L38.0085 3.13553C38.0271 3.06467 38.0379 2.99136 38.0406 2.91735C38.0476 2.89865 38.0512 2.8785 38.0512 2.85813C38.0512 2.83776 38.0476 2.81761 38.0406 2.79891C38.008 2.77012 37.9689 2.75281 37.928 2.74904H37.4614C37.417 2.75253 37.3734 2.76519 37.3327 2.78644C37.3074 2.79864 37.2866 2.82067 37.2737 2.84878C37.2707 2.88193 37.2707 2.91537 37.2737 2.94852L36.539 6.5454L35.7774 2.95475C35.77 2.91334 35.7573 2.87343 35.7399 2.83631C35.7233 2.8056 35.6989 2.78163 35.6701 2.76774C35.6248 2.7514 35.578 2.74095 35.5307 2.73657H35.0641C35.0179 2.7401 34.9726 2.75275 34.93 2.77397C34.9018 2.78585 34.8774 2.80763 34.8603 2.83631C34.8473 2.87489 34.8365 2.91446 34.8281 2.95475L34.0773 6.5454L33.364 2.92982C33.3689 2.89263 33.3689 2.8548 33.364 2.81761C33.3571 2.80367 33.3478 2.79151 33.3368 2.78186C33.3257 2.77222 33.3131 2.76529 33.2996 2.76151C33.2571 2.75222 33.2135 2.75222 33.1709 2.76151H32.6882C32.6421 2.76348 32.5974 2.78079 32.5595 2.81138C32.5465 2.82698 32.5364 2.84558 32.53 2.86598C32.5235 2.88638 32.5208 2.90813 32.522 2.92982C32.5277 2.99932 32.5385 3.06813 32.5542 3.13553L33.4498 7.24359Z"/>
</mask>
<path d="M28.9072 30.0342C29.2894 30.038 29.6696 29.9706 30.0335 29.8348C30.4219 29.6945 30.7826 29.4659 31.0944 29.1624C31.4063 28.8588 31.6632 28.4864 31.8503 28.0665C32.0374 27.6467 32.1509 27.1879 32.1843 26.7167C32.2176 26.2455 32.1702 25.7712 32.0447 25.3215L34.7906 13.4025C34.8254 13.2456 34.8062 13.079 34.7371 12.9382C34.668 12.7974 34.5545 12.6934 34.4205 12.6483L32.8545 12.1558C32.7201 12.1109 32.5759 12.1287 32.4527 12.2056C32.3295 12.2824 32.2369 12.4122 32.1948 12.5672L29.0681 24C28.4801 24.2115 27.9726 24.6517 27.6308 25.2467C27.0301 26.0633 26.6118 26.5433 25.979 26.3314C25.8862 26.3018 25.7884 26.3017 25.6956 26.3312C25.6028 26.3607 25.5186 26.4186 25.4517 26.4989C25.3848 26.5792 25.3377 26.6789 25.3154 26.7876C25.293 26.8964 25.2962 27.0101 25.3247 27.1168C25.5847 27.9773 26.07 28.7214 26.7126 29.2447C27.3552 29.768 28.1227 30.0441 28.9072 30.0342ZM33.0583 13.5085L33.5946 13.6955L31.1329 24.5298L30.13 24.1932L33.0583 13.5085ZM28.446 26.0135C28.8268 25.5023 29.1164 25.147 29.3041 25.2093L31.0525 25.8327C31.1956 26.4179 31.1345 27.0451 30.8826 27.5783C30.6306 28.1115 30.208 28.5079 29.7063 28.6815C29.1701 28.8831 28.5929 28.8831 28.0567 28.6817C27.5204 28.4803 27.0524 28.0876 26.7191 27.5594C27.4217 27.2711 28.0268 26.7295 28.446 26.0135ZM37.8422 27.7402L42.1327 20.7958C42.1986 20.6896 42.2341 20.562 42.2341 20.4311C42.2341 20.3002 42.1986 20.1726 42.1327 20.0664L37.8422 13.1158L36.9734 13.8451L41.044 20.428L36.9734 27.0233L37.8422 27.7402ZM23.5656 28.2701L24.4344 27.5407L20.042 20.4342L24.4344 13.334L23.5656 12.6046L18.9479 20.0851C18.882 20.1913 18.8466 20.3189 18.8466 20.4498C18.8466 20.5807 18.882 20.7083 18.9479 20.8145L23.5656 28.2701ZM18.9747 35.3392H44.3155C44.4577 35.3392 44.5942 35.2735 44.6947 35.1566C44.7953 35.0397 44.8518 34.8811 44.8518 34.7158V31.7922C44.8518 31.6268 44.7953 31.4683 44.6947 31.3514C44.5942 31.2345 44.4577 31.1688 44.3155 31.1688H18.9747C18.8325 31.1688 18.6961 31.2345 18.5955 31.3514C18.4949 31.4683 18.4384 31.6268 18.4384 31.7922V34.7158C18.4384 34.8811 18.4949 35.0397 18.5955 35.1566C18.6961 35.2735 18.8325 35.3392 18.9747 35.3392ZM19.511 32.4155H43.7792V34.0924H19.511V32.4155ZM18.9747 42.1589H39.4833C39.6256 42.1589 39.762 42.0932 39.8626 41.9763C39.9631 41.8594 40.0196 41.7009 40.0196 41.5355V38.6119C40.0196 38.4466 39.9631 38.288 39.8626 38.1711C39.762 38.0542 39.6256 37.9885 39.4833 37.9885H18.9747C18.8325 37.9885 18.6961 38.0542 18.5955 38.1711C18.4949 38.288 18.4384 38.4466 18.4384 38.6119V41.5355C18.4384 41.7009 18.4949 41.8594 18.5955 41.9763C18.6961 42.0932 18.8325 42.1589 18.9747 42.1589ZM19.511 39.2353H38.947V40.9122H19.511V39.2353ZM3.35193 14.2628V27.8961C3.35193 28.0614 3.40843 28.2199 3.50901 28.3368C3.60959 28.4538 3.746 28.5194 3.88824 28.5194H15.6228C15.765 28.5194 15.9014 28.4538 16.002 28.3368C16.1026 28.2199 16.1591 28.0614 16.1591 27.8961V14.2628C16.1591 14.0975 16.1026 13.9389 16.002 13.822C15.9014 13.7051 15.765 13.6394 15.6228 13.6394H3.88824C3.746 13.6394 3.60959 13.7051 3.50901 13.822C3.40843 13.9389 3.35193 14.0975 3.35193 14.2628ZM4.42455 14.8862H15.0865V27.2727H4.42455V14.8862ZM15.6228 31.1688H3.88824C3.746 31.1688 3.60959 31.2345 3.50901 31.3514C3.40843 31.4683 3.35193 31.6268 3.35193 31.7922V43.4805C3.35193 43.6458 3.40843 43.8044 3.50901 43.9213C3.60959 44.0382 3.746 44.1038 3.88824 44.1038H15.6228C15.765 44.1038 15.9014 44.0382 16.002 43.9213C16.1026 43.8044 16.1591 43.6458 16.1591 43.4805V31.7922C16.1591 31.6268 16.1026 31.4683 16.002 31.3514C15.9014 31.2345 15.765 31.1688 15.6228 31.1688ZM14.1694 32.4155L9.7555 36.8166L5.33629 32.4155H14.1694ZM4.42455 33.1449L8.92958 37.6394L4.42455 42.1277V33.1449ZM5.33629 42.8571L9.7555 38.4561L14.1694 42.8571H5.33629ZM15.0865 42.1277L10.5922 37.6394L15.1025 33.1449L15.0865 42.1277ZM17.591 7.24359C17.5995 7.29348 17.6139 7.34174 17.6339 7.38696C17.6568 7.42382 17.6885 7.45202 17.7251 7.468C17.7806 7.48932 17.8383 7.5019 17.8967 7.5054H18.4652C18.5237 7.50254 18.5815 7.48995 18.6368 7.468C18.6722 7.44929 18.702 7.41895 18.7227 7.38073C18.7451 7.33904 18.7597 7.2923 18.7656 7.24359L19.3823 4.25138L20.0366 7.24359C20.0426 7.2942 20.0572 7.34294 20.0795 7.38696C20.0999 7.4265 20.1325 7.45549 20.1707 7.468C20.2261 7.48995 20.2839 7.50254 20.3423 7.5054H20.8786C20.9353 7.50204 20.9913 7.48945 21.0449 7.468C21.0859 7.45558 21.122 7.42693 21.1468 7.38696C21.1711 7.3435 21.1875 7.2947 21.1951 7.24359L22.1282 3.13553C22.1455 3.06401 22.158 2.99108 22.1658 2.91735C22.1674 2.87469 22.156 2.83273 22.1336 2.79891C22.102 2.76793 22.0623 2.75034 22.021 2.74904H21.5758C21.5329 2.75148 21.4909 2.76421 21.4525 2.78644C21.4394 2.79135 21.4274 2.79945 21.4172 2.8102C21.407 2.82095 21.3989 2.8341 21.3935 2.84878C21.3904 2.88193 21.3904 2.91537 21.3935 2.94852L20.6748 6.5454L19.9079 2.95475C19.9005 2.91334 19.8878 2.87343 19.8704 2.83631C19.8551 2.80432 19.8303 2.77992 19.8006 2.76774C19.7572 2.75129 19.7122 2.74083 19.6666 2.73657H19.1732C19.1269 2.73931 19.0814 2.75199 19.0391 2.77397C19.01 2.78409 18.9852 2.80628 18.9694 2.83631C18.9515 2.87267 18.9405 2.91305 18.9372 2.95475L18.2132 6.5454L17.4999 2.92982C17.4964 2.89094 17.4873 2.853 17.473 2.81761C17.46 2.79115 17.439 2.77118 17.4141 2.76151C17.3714 2.75348 17.328 2.75348 17.2853 2.76151H16.7973C16.7512 2.76348 16.7065 2.78079 16.6686 2.81138C16.6552 2.82648 16.6453 2.84521 16.6396 2.86588C16.634 2.88655 16.6329 2.90852 16.6364 2.92982C16.6309 2.99824 16.6309 3.06711 16.6364 3.13553L17.591 7.24359ZM25.5177 7.24359C25.5301 7.29296 25.5463 7.34094 25.566 7.38696C25.5878 7.425 25.6199 7.45351 25.6572 7.468C25.7127 7.48932 25.7704 7.5019 25.8288 7.5054H26.3973C26.454 7.50265 26.51 7.49005 26.5635 7.468C26.6012 7.45107 26.6332 7.42046 26.6547 7.38073C26.6772 7.33904 26.6918 7.2923 26.6976 7.24359L27.3144 4.25138L27.9687 7.24359C27.9722 7.29487 27.9869 7.34425 28.0116 7.38696C28.032 7.4265 28.0646 7.45549 28.1028 7.468C28.1581 7.48995 28.2159 7.50254 28.2744 7.5054H28.8107C28.8691 7.5019 28.9268 7.48932 28.9823 7.468C29.022 7.45225 29.0572 7.42424 29.0842 7.38696C29.1086 7.3435 29.125 7.2947 29.1325 7.24359L30.0657 3.13553C30.0843 3.06467 30.0951 2.99136 30.0979 2.91735C30.1048 2.89865 30.1084 2.8785 30.1084 2.85813C30.1084 2.83776 30.1048 2.81761 30.0979 2.79891C30.0663 2.76793 30.0265 2.75034 29.9852 2.74904H29.5401C29.4972 2.75148 29.4552 2.76421 29.4167 2.78644C29.4036 2.79135 29.3916 2.79945 29.3814 2.8102C29.3713 2.82095 29.3632 2.8341 29.3577 2.84878C29.3547 2.88193 29.3547 2.91537 29.3577 2.94852L28.6069 6.5454L27.84 2.95475C27.8325 2.91334 27.8199 2.87343 27.8024 2.83631C27.7885 2.82199 27.772 2.81135 27.7542 2.80514C27.7088 2.78881 27.6621 2.77835 27.6147 2.77397H27.1481C27.1019 2.7775 27.0566 2.79015 27.0141 2.81138C27.0003 2.81622 26.9875 2.82423 26.9764 2.83494C26.9654 2.84565 26.9563 2.85884 26.9497 2.87372C26.9322 2.91084 26.9196 2.95074 26.9122 2.99216L26.1452 6.5454L25.4319 2.92982C25.4258 2.89157 25.4169 2.85402 25.4051 2.81761C25.392 2.79115 25.371 2.77118 25.3461 2.76151C25.3017 2.7529 25.2564 2.7529 25.212 2.76151H24.7294C24.6832 2.76348 24.6386 2.78079 24.6006 2.81138C24.5876 2.82698 24.5776 2.84558 24.5711 2.86598C24.5646 2.88638 24.5619 2.90813 24.5631 2.92982C24.5631 2.97969 24.5738 3.04826 24.5953 3.13553L25.5177 7.24359ZM33.4498 7.24359C33.4622 7.29296 33.4783 7.34094 33.4981 7.38696C33.5199 7.425 33.552 7.45351 33.5892 7.468C33.6446 7.48995 33.7024 7.50254 33.7609 7.5054H34.3294C34.386 7.50204 34.442 7.48945 34.4956 7.468C34.5324 7.4494 34.564 7.41916 34.5868 7.38073C34.6069 7.33774 34.6213 7.29152 34.6297 7.24359L35.2625 4.25138L35.9115 7.24359C35.9199 7.29348 35.9344 7.34174 35.9544 7.38696C35.9772 7.42382 36.009 7.45202 36.0456 7.468C36.1011 7.48932 36.1588 7.5019 36.2172 7.5054H36.7535C36.8119 7.5019 36.8696 7.48932 36.9251 7.468C36.964 7.45388 36.9979 7.42544 37.0217 7.38696C37.0479 7.344 37.0661 7.29518 37.0753 7.24359L38.0085 3.13553C38.0271 3.06467 38.0379 2.99136 38.0406 2.91735C38.0476 2.89865 38.0512 2.8785 38.0512 2.85813C38.0512 2.83776 38.0476 2.81761 38.0406 2.79891C38.008 2.77012 37.9689 2.75281 37.928 2.74904H37.4614C37.417 2.75253 37.3734 2.76519 37.3327 2.78644C37.3074 2.79864 37.2866 2.82067 37.2737 2.84878C37.2707 2.88193 37.2707 2.91537 37.2737 2.94852L36.539 6.5454L35.7774 2.95475C35.77 2.91334 35.7573 2.87343 35.7399 2.83631C35.7233 2.8056 35.6989 2.78163 35.6701 2.76774C35.6248 2.7514 35.578 2.74095 35.5307 2.73657H35.0641C35.0179 2.7401 34.9726 2.75275 34.93 2.77397C34.9018 2.78585 34.8774 2.80763 34.8603 2.83631C34.8473 2.87489 34.8365 2.91446 34.8281 2.95475L34.0773 6.5454L33.364 2.92982C33.3689 2.89263 33.3689 2.8548 33.364 2.81761C33.3571 2.80367 33.3478 2.79151 33.3368 2.78186C33.3257 2.77222 33.3131 2.76529 33.2996 2.76151C33.2571 2.75222 33.2135 2.75222 33.1709 2.76151H32.6882C32.6421 2.76348 32.5974 2.78079 32.5595 2.81138C32.5465 2.82698 32.5364 2.84558 32.53 2.86598C32.5235 2.88638 32.5208 2.90813 32.522 2.92982C32.5277 2.99932 32.5385 3.06813 32.5542 3.13553L33.4498 7.24359Z" fill="black" stroke="#9DC5FA" stroke-width="2" mask="url(#path-2-inside-1_297_60)"/>
</svg>
